<mxfile host="app.diagrams.net" modified="2023-06-13T02:58:11.868Z" agent="Mozilla/5.0 (Windows NT 10.0; Win64; x64) AppleWebKit/537.36 (KHTML, like Gecko) Chrome/114.0.0.0 Safari/537.36" etag="6IUmX4u9WwuOtvjQMQ8b" version="21.3.8" type="github">
  <diagram name="PÃ¡gina-1" id="hl2Cy4FxDxnZZoDs0rzR">
    <mxGraphModel dx="1430" dy="1342" grid="0" gridSize="10" guides="1" tooltips="1" connect="1" arrows="1" fold="1" page="0" pageScale="1" pageWidth="1200" pageHeight="1920" math="0" shadow="0">
      <root>
        <mxCell id="0" />
        <mxCell id="1" parent="0" />
        <mxCell id="j5SNftOGGFwBlkYOrTEM-1" style="edgeStyle=none;curved=1;rounded=0;orthogonalLoop=1;jettySize=auto;html=1;exitX=0;exitY=1;exitDx=0;exitDy=0;entryX=1;entryY=0;entryDx=0;entryDy=0;fontSize=12;startSize=8;endSize=8;endArrow=none;endFill=0;" edge="1" parent="1" source="j5SNftOGGFwBlkYOrTEM-3" target="j5SNftOGGFwBlkYOrTEM-4">
          <mxGeometry relative="1" as="geometry" />
        </mxCell>
        <mxCell id="j5SNftOGGFwBlkYOrTEM-2" style="edgeStyle=none;curved=1;rounded=0;orthogonalLoop=1;jettySize=auto;html=1;exitX=0;exitY=0;exitDx=0;exitDy=0;entryX=1;entryY=0.5;entryDx=0;entryDy=0;fontSize=12;startSize=8;endSize=8;endArrow=none;endFill=0;" edge="1" parent="1" source="j5SNftOGGFwBlkYOrTEM-3" target="j5SNftOGGFwBlkYOrTEM-7">
          <mxGeometry relative="1" as="geometry" />
        </mxCell>
        <mxCell id="j5SNftOGGFwBlkYOrTEM-3" value="Project" style="swimlane;fontStyle=0;childLayout=stackLayout;horizontal=1;startSize=26;fillColor=none;horizontalStack=0;resizeParent=1;resizeParentMax=0;resizeLast=0;collapsible=1;marginBottom=0;whiteSpace=wrap;html=1;fontSize=16;" vertex="1" parent="1">
          <mxGeometry x="678" y="-114" width="262" height="52" as="geometry">
            <mxRectangle x="351" y="266" width="90" height="30" as="alternateBounds" />
          </mxGeometry>
        </mxCell>
        <mxCell id="j5SNftOGGFwBlkYOrTEM-4" value="Module" style="swimlane;fontStyle=0;childLayout=stackLayout;horizontal=1;startSize=26;fillColor=none;horizontalStack=0;resizeParent=1;resizeParentMax=0;resizeLast=0;collapsible=1;marginBottom=0;whiteSpace=wrap;html=1;fontSize=16;" vertex="1" parent="1">
          <mxGeometry x="308" y="20" width="280" height="52" as="geometry">
            <mxRectangle x="351" y="266" width="90" height="30" as="alternateBounds" />
          </mxGeometry>
        </mxCell>
        <mxCell id="j5SNftOGGFwBlkYOrTEM-5" style="edgeStyle=none;curved=1;rounded=0;orthogonalLoop=1;jettySize=auto;html=1;entryX=0.5;entryY=0;entryDx=0;entryDy=0;fontSize=12;startSize=8;endSize=8;endArrow=none;endFill=0;" edge="1" parent="1" target="j5SNftOGGFwBlkYOrTEM-13">
          <mxGeometry relative="1" as="geometry">
            <mxPoint x="139" y="-70" as="sourcePoint" />
          </mxGeometry>
        </mxCell>
        <mxCell id="j5SNftOGGFwBlkYOrTEM-6" value="Task" style="swimlane;fontStyle=0;childLayout=stackLayout;horizontal=1;startSize=26;fillColor=none;horizontalStack=0;resizeParent=1;resizeParentMax=0;resizeLast=0;collapsible=1;marginBottom=0;whiteSpace=wrap;html=1;fontSize=16;" vertex="1" parent="1">
          <mxGeometry x="4" y="-118" width="262" height="52" as="geometry">
            <mxRectangle x="351" y="266" width="90" height="30" as="alternateBounds" />
          </mxGeometry>
        </mxCell>
        <mxCell id="j5SNftOGGFwBlkYOrTEM-7" value="Status" style="swimlane;fontStyle=0;childLayout=stackLayout;horizontal=1;startSize=26;fillColor=none;horizontalStack=0;resizeParent=1;resizeParentMax=0;resizeLast=0;collapsible=1;marginBottom=0;whiteSpace=wrap;html=1;fontSize=16;" vertex="1" parent="1">
          <mxGeometry x="300" y="-118" width="276" height="52" as="geometry">
            <mxRectangle x="351" y="266" width="90" height="30" as="alternateBounds" />
          </mxGeometry>
        </mxCell>
        <mxCell id="j5SNftOGGFwBlkYOrTEM-8" style="edgeStyle=none;curved=1;rounded=0;orthogonalLoop=1;jettySize=auto;html=1;exitX=0;exitY=1;exitDx=0;exitDy=0;entryX=0.902;entryY=0.006;entryDx=0;entryDy=0;entryPerimeter=0;fontSize=12;startSize=8;endSize=8;endArrow=none;endFill=0;" edge="1" parent="1" source="j5SNftOGGFwBlkYOrTEM-10" target="j5SNftOGGFwBlkYOrTEM-6">
          <mxGeometry relative="1" as="geometry" />
        </mxCell>
        <mxCell id="j5SNftOGGFwBlkYOrTEM-9" style="edgeStyle=none;curved=1;rounded=0;orthogonalLoop=1;jettySize=auto;html=1;exitX=1;exitY=0.5;exitDx=0;exitDy=0;entryX=0;entryY=0.5;entryDx=0;entryDy=0;fontSize=12;startSize=8;endSize=8;endArrow=none;endFill=0;" edge="1" parent="1" source="j5SNftOGGFwBlkYOrTEM-10" target="j5SNftOGGFwBlkYOrTEM-15">
          <mxGeometry relative="1" as="geometry" />
        </mxCell>
        <mxCell id="j5SNftOGGFwBlkYOrTEM-10" value="Users" style="swimlane;fontStyle=0;childLayout=stackLayout;horizontal=1;startSize=26;fillColor=none;horizontalStack=0;resizeParent=1;resizeParentMax=0;resizeLast=0;collapsible=1;marginBottom=0;whiteSpace=wrap;html=1;fontSize=16;" vertex="1" parent="1">
          <mxGeometry x="328" y="-247" width="240" height="52" as="geometry" />
        </mxCell>
        <mxCell id="j5SNftOGGFwBlkYOrTEM-11" style="edgeStyle=none;curved=1;rounded=0;orthogonalLoop=1;jettySize=auto;html=1;exitX=0.5;exitY=1;exitDx=0;exitDy=0;entryX=0.459;entryY=0.006;entryDx=0;entryDy=0;entryPerimeter=0;fontSize=12;startSize=8;endSize=8;endArrow=none;endFill=0;" edge="1" parent="1" source="j5SNftOGGFwBlkYOrTEM-12" target="j5SNftOGGFwBlkYOrTEM-6">
          <mxGeometry relative="1" as="geometry" />
        </mxCell>
        <mxCell id="j5SNftOGGFwBlkYOrTEM-12" value="Task_comments" style="swimlane;fontStyle=0;childLayout=stackLayout;horizontal=1;startSize=26;fillColor=none;horizontalStack=0;resizeParent=1;resizeParentMax=0;resizeLast=0;collapsible=1;marginBottom=0;whiteSpace=wrap;html=1;fontSize=16;" vertex="1" parent="1">
          <mxGeometry x="4" y="-247" width="240" height="52" as="geometry" />
        </mxCell>
        <mxCell id="j5SNftOGGFwBlkYOrTEM-13" value="Files" style="swimlane;fontStyle=0;childLayout=stackLayout;horizontal=1;startSize=26;fillColor=none;horizontalStack=0;resizeParent=1;resizeParentMax=0;resizeLast=0;collapsible=1;marginBottom=0;whiteSpace=wrap;html=1;fontSize=16;" vertex="1" parent="1">
          <mxGeometry x="4" y="20" width="270" height="52" as="geometry" />
        </mxCell>
        <mxCell id="j5SNftOGGFwBlkYOrTEM-14" value="Group" style="swimlane;fontStyle=0;childLayout=stackLayout;horizontal=1;startSize=26;fillColor=none;horizontalStack=0;resizeParent=1;resizeParentMax=0;resizeLast=0;collapsible=1;marginBottom=0;whiteSpace=wrap;html=1;fontSize=16;" vertex="1" parent="1">
          <mxGeometry x="1040" y="-250" width="240" height="52" as="geometry" />
        </mxCell>
        <mxCell id="j5SNftOGGFwBlkYOrTEM-15" value="Group_name" style="swimlane;fontStyle=0;childLayout=stackLayout;horizontal=1;startSize=26;fillColor=none;horizontalStack=0;resizeParent=1;resizeParentMax=0;resizeLast=0;collapsible=1;marginBottom=0;whiteSpace=wrap;html=1;fontSize=16;" vertex="1" parent="1">
          <mxGeometry x="676" y="-250" width="240" height="52" as="geometry" />
        </mxCell>
        <mxCell id="j5SNftOGGFwBlkYOrTEM-16" style="edgeStyle=none;curved=1;rounded=0;orthogonalLoop=1;jettySize=auto;html=1;fontSize=12;startSize=8;endSize=8;endArrow=none;endFill=0;" edge="1" parent="1" source="j5SNftOGGFwBlkYOrTEM-15" target="j5SNftOGGFwBlkYOrTEM-14">
          <mxGeometry relative="1" as="geometry">
            <mxPoint x="910" y="-60" as="sourcePoint" />
            <mxPoint x="1120" y="-59" as="targetPoint" />
          </mxGeometry>
        </mxCell>
        <mxCell id="j5SNftOGGFwBlkYOrTEM-17" value="N" style="text;html=1;align=center;verticalAlign=middle;resizable=0;points=[];autosize=1;strokeColor=none;fillColor=none;fontSize=16;rotation=180;" vertex="1" parent="1">
          <mxGeometry x="916" y="-250" width="40" height="30" as="geometry" />
        </mxCell>
        <mxCell id="j5SNftOGGFwBlkYOrTEM-18" style="edgeStyle=none;curved=1;rounded=0;orthogonalLoop=1;jettySize=auto;html=1;exitX=0.5;exitY=0;exitDx=0;exitDy=0;entryX=0.5;entryY=1;entryDx=0;entryDy=0;fontSize=12;startSize=8;endSize=8;endArrow=none;endFill=0;" edge="1" parent="1" source="j5SNftOGGFwBlkYOrTEM-19" target="j5SNftOGGFwBlkYOrTEM-14">
          <mxGeometry relative="1" as="geometry" />
        </mxCell>
        <mxCell id="j5SNftOGGFwBlkYOrTEM-19" value="Project_group" style="swimlane;fontStyle=0;childLayout=stackLayout;horizontal=1;startSize=26;fillColor=none;horizontalStack=0;resizeParent=1;resizeParentMax=0;resizeLast=0;collapsible=1;marginBottom=0;whiteSpace=wrap;html=1;fontSize=16;" vertex="1" parent="1">
          <mxGeometry x="1040" y="-114" width="240" height="48" as="geometry" />
        </mxCell>
        <mxCell id="j5SNftOGGFwBlkYOrTEM-20" style="edgeStyle=none;curved=1;rounded=0;orthogonalLoop=1;jettySize=auto;html=1;exitX=0.25;exitY=0;exitDx=0;exitDy=0;entryX=1;entryY=1;entryDx=0;entryDy=0;fontSize=12;startSize=8;endSize=8;endArrow=none;endFill=0;" edge="1" parent="1" source="j5SNftOGGFwBlkYOrTEM-21" target="j5SNftOGGFwBlkYOrTEM-3">
          <mxGeometry relative="1" as="geometry" />
        </mxCell>
        <mxCell id="j5SNftOGGFwBlkYOrTEM-21" value="Requesting_sector" style="swimlane;fontStyle=0;childLayout=stackLayout;horizontal=1;startSize=26;fillColor=none;horizontalStack=0;resizeParent=1;resizeParentMax=0;resizeLast=0;collapsible=1;marginBottom=0;whiteSpace=wrap;html=1;fontSize=16;" vertex="1" parent="1">
          <mxGeometry x="1040" y="10" width="240" height="52" as="geometry" />
        </mxCell>
        <mxCell id="j5SNftOGGFwBlkYOrTEM-22" style="edgeStyle=none;curved=1;rounded=0;orthogonalLoop=1;jettySize=auto;html=1;exitX=0.5;exitY=0;exitDx=0;exitDy=0;entryX=0.5;entryY=1;entryDx=0;entryDy=0;fontSize=12;startSize=8;endSize=8;endArrow=none;endFill=0;" edge="1" parent="1" source="j5SNftOGGFwBlkYOrTEM-23" target="j5SNftOGGFwBlkYOrTEM-3">
          <mxGeometry relative="1" as="geometry" />
        </mxCell>
        <mxCell id="j5SNftOGGFwBlkYOrTEM-23" value="Deploys" style="swimlane;fontStyle=0;childLayout=stackLayout;horizontal=1;startSize=26;fillColor=none;horizontalStack=0;resizeParent=1;resizeParentMax=0;resizeLast=0;collapsible=1;marginBottom=0;whiteSpace=wrap;html=1;fontSize=16;" vertex="1" parent="1">
          <mxGeometry x="669" y="20" width="280" height="52" as="geometry" />
        </mxCell>
        <mxCell id="j5SNftOGGFwBlkYOrTEM-24" style="edgeStyle=none;curved=1;rounded=0;orthogonalLoop=1;jettySize=auto;html=1;exitX=0.5;exitY=0;exitDx=0;exitDy=0;fontSize=12;startSize=8;endSize=8;" edge="1" parent="1" source="j5SNftOGGFwBlkYOrTEM-14" target="j5SNftOGGFwBlkYOrTEM-14">
          <mxGeometry relative="1" as="geometry" />
        </mxCell>
        <mxCell id="j5SNftOGGFwBlkYOrTEM-25" style="edgeStyle=none;curved=1;rounded=0;orthogonalLoop=1;jettySize=auto;html=1;exitX=0;exitY=0.5;exitDx=0;exitDy=0;entryX=1;entryY=0.5;entryDx=0;entryDy=0;fontSize=12;startSize=8;endSize=8;endArrow=none;endFill=0;" edge="1" parent="1" source="j5SNftOGGFwBlkYOrTEM-19" target="j5SNftOGGFwBlkYOrTEM-3">
          <mxGeometry relative="1" as="geometry">
            <mxPoint x="1040" y="-75" as="sourcePoint" />
            <mxPoint x="940" y="-71.00000000000023" as="targetPoint" />
          </mxGeometry>
        </mxCell>
        <mxCell id="j5SNftOGGFwBlkYOrTEM-26" style="edgeStyle=none;curved=1;rounded=0;orthogonalLoop=1;jettySize=auto;html=1;exitX=0.5;exitY=0;exitDx=0;exitDy=0;fontSize=12;startSize=8;endSize=8;" edge="1" parent="1" source="j5SNftOGGFwBlkYOrTEM-12" target="j5SNftOGGFwBlkYOrTEM-12">
          <mxGeometry relative="1" as="geometry" />
        </mxCell>
        <mxCell id="j5SNftOGGFwBlkYOrTEM-27" style="edgeStyle=none;curved=1;rounded=0;orthogonalLoop=1;jettySize=auto;html=1;exitX=0.75;exitY=0;exitDx=0;exitDy=0;fontSize=12;startSize=8;endSize=8;" edge="1" parent="1" source="j5SNftOGGFwBlkYOrTEM-7" target="j5SNftOGGFwBlkYOrTEM-7">
          <mxGeometry relative="1" as="geometry" />
        </mxCell>
        <mxCell id="j5SNftOGGFwBlkYOrTEM-28" style="edgeStyle=none;curved=1;rounded=0;orthogonalLoop=1;jettySize=auto;html=1;exitX=0.5;exitY=0;exitDx=0;exitDy=0;fontSize=12;startSize=8;endSize=8;" edge="1" parent="1" source="j5SNftOGGFwBlkYOrTEM-7" target="j5SNftOGGFwBlkYOrTEM-7">
          <mxGeometry relative="1" as="geometry" />
        </mxCell>
        <mxCell id="j5SNftOGGFwBlkYOrTEM-29" value="1" style="text;html=1;align=center;verticalAlign=middle;resizable=0;points=[];autosize=1;strokeColor=none;fillColor=none;fontSize=16;" vertex="1" parent="1">
          <mxGeometry x="990" y="-250" width="30" height="30" as="geometry" />
        </mxCell>
        <mxCell id="j5SNftOGGFwBlkYOrTEM-30" style="edgeStyle=none;curved=1;rounded=0;orthogonalLoop=1;jettySize=auto;html=1;exitX=0.75;exitY=0;exitDx=0;exitDy=0;fontSize=12;startSize=8;endSize=8;" edge="1" parent="1" source="j5SNftOGGFwBlkYOrTEM-4" target="j5SNftOGGFwBlkYOrTEM-4">
          <mxGeometry relative="1" as="geometry" />
        </mxCell>
        <mxCell id="j5SNftOGGFwBlkYOrTEM-31" value="1" style="text;html=1;align=center;verticalAlign=middle;resizable=0;points=[];autosize=1;strokeColor=none;fillColor=none;fontSize=16;" vertex="1" parent="1">
          <mxGeometry x="575" y="-262" width="30" height="30" as="geometry" />
        </mxCell>
        <mxCell id="j5SNftOGGFwBlkYOrTEM-32" value="N" style="text;html=1;align=center;verticalAlign=middle;resizable=0;points=[];autosize=1;strokeColor=none;fillColor=none;fontSize=16;" vertex="1" parent="1">
          <mxGeometry x="629" y="-262" width="40" height="30" as="geometry" />
        </mxCell>
        <mxCell id="j5SNftOGGFwBlkYOrTEM-33" value="1" style="text;html=1;align=center;verticalAlign=middle;resizable=0;points=[];autosize=1;strokeColor=none;fillColor=none;fontSize=16;" vertex="1" parent="1">
          <mxGeometry x="1175" y="-192" width="30" height="30" as="geometry" />
        </mxCell>
        <mxCell id="j5SNftOGGFwBlkYOrTEM-34" value="N" style="text;html=1;align=center;verticalAlign=middle;resizable=0;points=[];autosize=1;strokeColor=none;fillColor=none;fontSize=16;" vertex="1" parent="1">
          <mxGeometry x="1175" y="-144" width="40" height="30" as="geometry" />
        </mxCell>
        <mxCell id="j5SNftOGGFwBlkYOrTEM-35" value="1" style="text;html=1;align=center;verticalAlign=middle;resizable=0;points=[];autosize=1;strokeColor=none;fillColor=none;fontSize=16;" vertex="1" parent="1">
          <mxGeometry x="285" y="-222" width="30" height="30" as="geometry" />
        </mxCell>
        <mxCell id="j5SNftOGGFwBlkYOrTEM-36" value="N" style="text;html=1;align=center;verticalAlign=middle;resizable=0;points=[];autosize=1;strokeColor=none;fillColor=none;fontSize=16;" vertex="1" parent="1">
          <mxGeometry x="210" y="-162" width="40" height="30" as="geometry" />
        </mxCell>
        <mxCell id="j5SNftOGGFwBlkYOrTEM-37" value="N" style="text;html=1;align=center;verticalAlign=middle;resizable=0;points=[];autosize=1;strokeColor=none;fillColor=none;fontSize=16;" vertex="1" parent="1">
          <mxGeometry x="70" y="-192" width="40" height="30" as="geometry" />
        </mxCell>
        <mxCell id="j5SNftOGGFwBlkYOrTEM-38" value="1" style="text;html=1;align=center;verticalAlign=middle;resizable=0;points=[];autosize=1;strokeColor=none;fillColor=none;fontSize=16;" vertex="1" parent="1">
          <mxGeometry x="75" y="-148" width="30" height="30" as="geometry" />
        </mxCell>
        <mxCell id="j5SNftOGGFwBlkYOrTEM-39" value="1" style="text;html=1;align=center;verticalAlign=middle;resizable=0;points=[];autosize=1;strokeColor=none;fillColor=none;fontSize=16;" vertex="1" parent="1">
          <mxGeometry x="90" y="-62" width="30" height="30" as="geometry" />
        </mxCell>
        <mxCell id="j5SNftOGGFwBlkYOrTEM-40" value="N" style="text;html=1;align=center;verticalAlign=middle;resizable=0;points=[];autosize=1;strokeColor=none;fillColor=none;fontSize=16;" vertex="1" parent="1">
          <mxGeometry x="90" y="-10" width="40" height="30" as="geometry" />
        </mxCell>
        <mxCell id="j5SNftOGGFwBlkYOrTEM-41" value="N" style="text;html=1;align=center;verticalAlign=middle;resizable=0;points=[];autosize=1;strokeColor=none;fillColor=none;fontSize=16;" vertex="1" parent="1">
          <mxGeometry x="1090" y="-32" width="40" height="30" as="geometry" />
        </mxCell>
        <mxCell id="j5SNftOGGFwBlkYOrTEM-42" value="N" style="text;html=1;align=center;verticalAlign=middle;resizable=0;points=[];autosize=1;strokeColor=none;fillColor=none;fontSize=16;" vertex="1" parent="1">
          <mxGeometry x="980" y="-72" width="40" height="30" as="geometry" />
        </mxCell>
        <mxCell id="j5SNftOGGFwBlkYOrTEM-43" value="1" style="text;html=1;align=center;verticalAlign=middle;resizable=0;points=[];autosize=1;strokeColor=none;fillColor=none;fontSize=16;" vertex="1" parent="1">
          <mxGeometry x="639" y="-152" width="30" height="30" as="geometry" />
        </mxCell>
        <mxCell id="j5SNftOGGFwBlkYOrTEM-44" value="1" style="text;html=1;align=center;verticalAlign=middle;resizable=0;points=[];autosize=1;strokeColor=none;fillColor=none;fontSize=16;" vertex="1" parent="1">
          <mxGeometry x="575" y="-144" width="30" height="30" as="geometry" />
        </mxCell>
        <mxCell id="j5SNftOGGFwBlkYOrTEM-45" value="1" style="text;html=1;align=center;verticalAlign=middle;resizable=0;points=[];autosize=1;strokeColor=none;fillColor=none;fontSize=16;" vertex="1" parent="1">
          <mxGeometry x="625" y="-82" width="30" height="30" as="geometry" />
        </mxCell>
        <mxCell id="j5SNftOGGFwBlkYOrTEM-46" value="N" style="text;html=1;align=center;verticalAlign=middle;resizable=0;points=[];autosize=1;strokeColor=none;fillColor=none;fontSize=16;" vertex="1" parent="1">
          <mxGeometry x="565" y="-30" width="40" height="30" as="geometry" />
        </mxCell>
        <mxCell id="j5SNftOGGFwBlkYOrTEM-47" value="1" style="text;html=1;align=center;verticalAlign=middle;resizable=0;points=[];autosize=1;strokeColor=none;fillColor=none;fontSize=16;" vertex="1" parent="1">
          <mxGeometry x="827" y="-60" width="30" height="30" as="geometry" />
        </mxCell>
        <mxCell id="j5SNftOGGFwBlkYOrTEM-48" value="N" style="text;html=1;align=center;verticalAlign=middle;resizable=0;points=[];autosize=1;strokeColor=none;fillColor=none;fontSize=16;" vertex="1" parent="1">
          <mxGeometry x="827" y="-10" width="40" height="30" as="geometry" />
        </mxCell>
        <mxCell id="j5SNftOGGFwBlkYOrTEM-186" value="1" style="text;html=1;align=center;verticalAlign=middle;resizable=0;points=[];autosize=1;strokeColor=none;fillColor=none;fontSize=16;" vertex="1" parent="1">
          <mxGeometry x="998" y="-130" width="27" height="31" as="geometry" />
        </mxCell>
        <mxCell id="j5SNftOGGFwBlkYOrTEM-187" value="1" style="text;html=1;align=center;verticalAlign=middle;resizable=0;points=[];autosize=1;strokeColor=none;fillColor=none;fontSize=16;" vertex="1" parent="1">
          <mxGeometry x="942" y="-130" width="27" height="31" as="geometry" />
        </mxCell>
      </root>
    </mxGraphModel>
  </diagram>
</mxfile>
